<svg width="26" height="21" viewBox="0 0 26 21" fill="none" xmlns="http://www.w3.org/2000/svg">
<path fill-rule="evenodd" clip-rule="evenodd" d="M24.7813 20.8H1.21873C0.545489 20.8 0 20.2629 0 19.6V4.89192C0 4.22942 0.545489 3.69194 1.21873 3.69194H6.42384L8.37574 0.478529C8.59832 0.189482 8.94704 0 9.34378 0H16.6562C16.9986 0 17.3065 0.140217 17.5283 0.363677L17.5291 0.362514L19.5988 3.69194H24.7813C25.4545 3.69194 26 4.22942 26 4.89192V19.6C26 20.2629 25.4545 20.8 24.7813 20.8ZM13 6.15323C9.44446 6.15323 6.56227 8.99141 6.56227 12.4919C6.56227 15.9928 9.44446 18.8306 13 18.8306C16.5556 18.8306 19.4378 15.9928 19.4378 12.4919C19.4378 8.99141 16.5556 6.15323 13 6.15323ZM9.27432 12.4919C9.27432 14.5178 10.9425 16.1604 13 16.1604C15.0578 16.1604 16.7257 14.5178 16.7257 12.4919C16.7257 10.4658 15.0578 8.82355 13 8.82355C10.9425 8.82355 9.27432 10.4658 9.27432 12.4919Z" fill="#414141"/>
</svg>
