<svg width="17" height="17" viewBox="0 0 17 17" fill="none" xmlns="http://www.w3.org/2000/svg">
<path fill-rule="evenodd" clip-rule="evenodd" d="M12.4489 7.25493L12.7436 8.2236C12.8445 8.55721 13.1866 8.75564 13.5263 8.6776L14.5076 8.45026C14.8896 8.3636 15.2834 8.53624 15.4785 8.87587C15.6736 9.2155 15.6243 9.64266 15.3569 9.92893L14.6703 10.6696C14.4323 10.9255 14.4323 11.3217 14.6703 11.5776L15.3569 12.3183C15.6243 12.6045 15.6736 13.0317 15.4785 13.3713C15.2834 13.711 14.8896 13.8836 14.5076 13.7969L13.5263 13.5696C13.1866 13.4916 12.8445 13.69 12.7436 14.0236L12.4489 14.9883C12.3365 15.3634 11.9913 15.6204 11.5996 15.6204C11.208 15.6204 10.8627 15.3634 10.7503 14.9883L10.4549 14.0196C10.3543 13.6861 10.0125 13.4876 9.67295 13.5656L8.69095 13.7929C8.30899 13.8796 7.91517 13.707 7.72009 13.3673C7.52501 13.0277 7.57431 12.6005 7.84161 12.3143L8.52828 11.5736C8.76625 11.3177 8.76625 10.9215 8.52828 10.6656L7.84161 9.92493C7.57431 9.63866 7.52501 9.2115 7.72009 8.87187C7.91517 8.53224 8.30899 8.3596 8.69095 8.44626L9.67295 8.6736C10.0125 8.75159 10.3543 8.55311 10.4549 8.2196L10.7503 7.25093C10.8636 6.87604 11.2095 6.61991 11.6011 6.62084C11.9927 6.62176 12.3374 6.87952 12.4489 7.25493Z" stroke="white" stroke-width="1.2" stroke-linecap="round" stroke-linejoin="round"/>
<path d="M15.5236 6.58826C15.1118 3.77024 13.0338 1.48263 10.2682 0.802767C7.50261 0.122906 4.60081 1.18635 2.92942 3.49226C1.25804 5.79817 1.1503 8.88682 2.65694 11.3036L0.599609 15.6216L4.91561 13.5656C5.14286 13.7069 5.3779 13.8354 5.61961 13.9503" stroke="white" stroke-width="1.2" stroke-linecap="round" stroke-linejoin="round"/>
</svg>
