<svg width="17" height="17" viewBox="0 0 17 17" fill="none" xmlns="http://www.w3.org/2000/svg">
<path d="M8.09993 12.5998C7.96186 12.5998 7.84993 12.7118 7.84993 12.8498C7.84993 12.9879 7.96186 13.0998 8.09993 13.0998C8.23801 13.0998 8.34993 12.9879 8.34993 12.8498C8.34993 12.7118 8.23801 12.5998 8.09993 12.5998V12.5998" stroke="white" stroke-width="1.2" stroke-linecap="round" stroke-linejoin="round"/>
<path d="M8.09993 10.5999V5.59985" stroke="white" stroke-width="1.2" stroke-linecap="round"/>
<path fill-rule="evenodd" clip-rule="evenodd" d="M9.18028 1.27318C8.97787 0.861103 8.55872 0.600006 8.09962 0.600006C7.64051 0.600006 7.22136 0.861103 7.01895 1.27318L0.703617 14.1385C0.549066 14.4529 0.567751 14.8248 0.753035 15.1221C0.93832 15.4195 1.26395 15.6001 1.61428 15.5998H14.585C14.9353 15.6001 15.2609 15.4195 15.4462 15.1221C15.6315 14.8248 15.6502 14.4529 15.4956 14.1385L9.18028 1.27318Z" stroke="white" stroke-width="1.2" stroke-linecap="round" stroke-linejoin="round"/>
</svg>
