<svg width="17" height="17" viewBox="0 0 17 17" fill="none" xmlns="http://www.w3.org/2000/svg">
<path fill-rule="evenodd" clip-rule="evenodd" d="M8.58452 0.897163L10.8152 5.3165L15.1085 5.74183C15.3172 5.75917 15.4968 5.89634 15.5684 6.09313C15.64 6.28993 15.5906 6.51041 15.4418 6.65783L11.9085 10.1598L13.2185 14.9185C13.2733 15.1247 13.202 15.3438 13.0364 15.4783C12.8708 15.6128 12.6418 15.6377 12.4512 15.5418L8.09852 13.3865L3.75185 15.5392C3.56127 15.635 3.33219 15.6101 3.16662 15.4756C3.00105 15.3411 2.92977 15.122 2.98451 14.9158L4.29451 10.1572L0.758515 6.65516C0.609768 6.50774 0.560364 6.28726 0.631979 6.09047C0.703594 5.89367 0.883144 5.75651 1.09185 5.73916L5.38518 5.31383L7.61251 0.897163C7.70591 0.714753 7.89359 0.6 8.09852 0.6C8.30345 0.6 8.49112 0.714753 8.58452 0.897163Z" stroke="white" stroke-width="1.2" stroke-linecap="round" stroke-linejoin="round"/>
</svg>
