<svg width="14" height="14" viewBox="0 0 14 14" fill="none" xmlns="http://www.w3.org/2000/svg">
<path d="M9.89844 3.44531C9.05078 2.65234 7.92969 2.1875 6.75391 2.1875C4.64844 2.21484 2.81641 3.66406 2.32422 5.66016C2.26953 5.82422 2.13281 5.90625 1.99609 5.90625H0.4375C0.21875 5.90625 0.0546875 5.74219 0.109375 5.52344C0.683594 2.37891 3.44531 0 6.78125 0C8.58594 0 10.2266 0.738281 11.457 1.88672L12.4414 0.902344C12.8516 0.492188 13.5625 0.792969 13.5625 1.36719V5.03125C13.5625 5.41406 13.2617 5.6875 12.9062 5.6875H9.21484C8.64062 5.6875 8.33984 5.00391 8.75 4.59375L9.89844 3.44531ZM0.65625 7.875H4.32031C4.89453 7.875 5.19531 8.58594 4.78516 8.99609L3.63672 10.1445C4.48438 10.9375 5.60547 11.4023 6.78125 11.4023C8.88672 11.375 10.7188 9.92578 11.2109 7.92969C11.2656 7.76562 11.4023 7.68359 11.5391 7.68359H13.0977C13.3164 7.68359 13.4805 7.84766 13.4258 8.06641C12.8516 11.2109 10.0898 13.5625 6.78125 13.5625C4.94922 13.5625 3.30859 12.8516 2.07812 11.7031L1.09375 12.6875C0.683594 13.0977 0 12.7969 0 12.2227V8.53125C0 8.17578 0.273438 7.875 0.65625 7.875Z" fill="url(#paint0_linear_0_21567)"/>
<defs>
<linearGradient id="paint0_linear_0_21567" x1="-0.21875" y1="-0.96875" x2="-0.21875" y2="15.0312" gradientUnits="userSpaceOnUse">
<stop stop-color="#9E8FFF"/>
<stop offset="1" stop-color="#EBCBFF"/>
</linearGradient>
</defs>
</svg>
