<svg width="17" height="19" viewBox="0 0 17 19" fill="none" xmlns="http://www.w3.org/2000/svg">
<path d="M2.07422 16.8047C0 14.6602 0.0351562 11.25 2.10938 9.14062L9.49219 1.58203C11.0391 0 13.5703 0 15.1523 1.58203C16.6641 3.16406 16.6992 5.73047 15.1523 7.3125L8.71875 13.8867C7.66406 14.9414 5.94141 14.9414 4.92188 13.8516C3.90234 12.7969 3.9375 11.1094 4.95703 10.0898L10.0195 4.92188C10.2305 4.71094 10.582 4.67578 10.8281 4.92188L11.6016 5.69531C11.8477 5.90625 11.8477 6.25781 11.6367 6.50391L6.57422 11.6367C6.39844 11.8125 6.39844 12.1289 6.53906 12.3047C6.71484 12.4453 6.96094 12.4453 7.10156 12.3047L13.5352 5.73047C14.2031 5.02734 14.2031 3.86719 13.5352 3.16406C12.8672 2.49609 11.7773 2.49609 11.1094 3.16406L3.72656 10.7227C2.49609 11.9531 2.49609 13.9922 3.69141 15.2227C4.88672 16.4531 6.82031 16.4531 8.01562 15.2227L14.0625 9.03516C14.2734 8.82422 14.625 8.82422 14.8359 9.03516L15.6445 9.84375C15.8906 10.0547 15.8906 10.4062 15.6797 10.6172L9.63281 16.8047C7.52344 18.9492 4.14844 18.9141 2.07422 16.8047Z" fill="#D9D9D9"/>
</svg>
