<svg width="9" height="9" viewBox="0 0 9 9" fill="none" xmlns="http://www.w3.org/2000/svg">
<path d="M7.17085 0.170854C7.39866 -0.0569515 7.76824 -0.0569515 7.99605 0.170854C8.22369 0.398673 8.2238 0.768298 7.99605 0.99605L4.90816 4.08296L7.99605 7.17085C8.22369 7.39867 8.2238 7.7683 7.99605 7.99605C7.7683 8.2238 7.39867 8.22369 7.17085 7.99605L4.08296 4.90816L0.99605 7.99605C0.768298 8.2238 0.398673 8.22369 0.170854 7.99605C-0.0569515 7.76824 -0.0569515 7.39866 0.170854 7.17085L3.25777 4.08296L0.170854 0.99605C-0.0569515 0.768244 -0.0569515 0.39866 0.170854 0.170854C0.39866 -0.0569515 0.768244 -0.0569515 0.99605 0.170854L4.08296 3.25777L7.17085 0.170854Z" fill="#D5D5D5"/>
</svg>
