<svg width="14" height="14" viewBox="0 0 14 14" fill="none" xmlns="http://www.w3.org/2000/svg">
<path d="M14 4.83984C14 7.49219 11.8398 9.625 9.1875 9.625C8.85938 9.625 8.55859 9.59766 8.28516 9.54297L7.62891 10.2812C7.49219 10.418 7.32812 10.5 7.13672 10.5H6.125V11.5938C6.125 11.9766 5.82422 12.25 5.46875 12.25H4.375V13.3438C4.375 13.7266 4.07422 14 3.71875 14H0.65625C0.273438 14 0 13.7266 0 13.3438V11.2109C0 11.0469 0.0546875 10.8828 0.191406 10.7461L4.59375 6.34375C4.45703 5.85156 4.375 5.35938 4.375 4.8125C4.375 2.16016 6.50781 0.0273438 9.16016 0C11.8398 0 14 2.16016 14 4.83984ZM9.1875 3.5C9.1875 4.23828 9.76172 4.8125 10.5 4.8125C11.2109 4.8125 11.8125 4.23828 11.8125 3.5C11.8125 2.78906 11.2109 2.1875 10.5 2.1875C9.76172 2.1875 9.1875 2.78906 9.1875 3.5Z" fill="url(#paint0_linear_0_21571)"/>
<defs>
<linearGradient id="paint0_linear_0_21571" x1="0" y1="-0.75" x2="0" y2="15.25" gradientUnits="userSpaceOnUse">
<stop stop-color="#F97FD9"/>
<stop offset="1" stop-color="#FFC1E6"/>
</linearGradient>
</defs>
</svg>
