<svg width="44" height="44" viewBox="0 0 44 44" fill="none" xmlns="http://www.w3.org/2000/svg">
<path opacity="0.7" fill-rule="evenodd" clip-rule="evenodd" d="M22 44C9.84974 44 0 34.1503 0 22C0 9.84974 9.84974 0 22 0C34.1503 0 44 9.84974 44 22C44 34.1503 34.1503 44 22 44Z" fill="#4B5668"/>
<path fill-rule="evenodd" clip-rule="evenodd" d="M22.0002 29.883L29.1912 22.383C30.4874 21.0879 30.8086 19.1083 29.9885 17.4697V17.4697C29.3767 16.2467 28.2144 15.3921 26.8645 15.1731C25.5146 14.9541 24.1418 15.3973 23.1747 16.3642L22.0002 17.538L20.8257 16.3642C19.8587 15.3973 18.4858 14.9541 17.1359 15.1731C15.786 15.3921 14.6237 16.2467 14.012 17.4697V17.4697C13.193 19.1076 13.5138 21.0857 14.8085 22.3807L22.0002 29.883Z" stroke="white" stroke-width="1.5" stroke-linecap="round" stroke-linejoin="round"/>
</svg>
