<svg width="36" height="36" viewBox="0 0 36 36" fill="none" xmlns="http://www.w3.org/2000/svg">
<path fill-rule="evenodd" clip-rule="evenodd" d="M18 36C27.9411 36 36 27.9411 36 18C36 8.05887 27.9411 0 18 0C8.05887 0 0 8.05887 0 18C0 27.9411 8.05887 36 18 36Z" fill="url(#paint0_linear_1112_3963)"/>
<path d="M19.8125 23.5625C19.8125 24.793 18.8281 25.75 17.625 25.75C16.3945 25.75 15.4375 24.793 15.4375 23.5625C15.4375 22.3594 16.3945 21.375 17.625 21.375C18.8281 21.375 19.8125 22.3594 19.8125 23.5625ZM15.6836 12.4609C15.6562 12.0781 15.957 11.75 16.3398 11.75H18.8828C19.2656 11.75 19.5664 12.0781 19.5391 12.4609L19.1836 19.8984C19.1562 20.2266 18.8555 20.5 18.5273 20.5H16.6953C16.3672 20.5 16.0664 20.2266 16.0391 19.8984L15.6836 12.4609Z" fill="white"/>
<defs>
<linearGradient id="paint0_linear_1112_3963" x1="0" y1="0" x2="0" y2="36" gradientUnits="userSpaceOnUse">
<stop stop-color="#FF8F8F"/>
<stop offset="1" stop-color="#FFC1C1"/>
</linearGradient>
</defs>
</svg>
