<svg width="14" height="11" viewBox="0 0 14 11" fill="none" xmlns="http://www.w3.org/2000/svg">
<path d="M13.5898 5.93359L8.99609 10.5273C8.58594 10.9375 7.875 10.6641 7.875 10.0625V7.4375H4.15625C3.77344 7.4375 3.5 7.16406 3.5 6.78125V4.15625C3.5 3.80078 3.77344 3.5 4.15625 3.5H7.875V0.875C7.875 0.300781 8.55859 0 8.99609 0.410156L13.5898 5.00391C13.8359 5.27734 13.8359 5.6875 13.5898 5.93359ZM5.25 10.3906C5.25 10.582 5.08594 10.7188 4.92188 10.7188H2.625C1.17578 10.7188 0 9.54297 0 8.09375V2.84375C0 1.39453 1.17578 0.21875 2.625 0.21875H4.92188C5.08594 0.21875 5.25 0.382812 5.25 0.546875V1.64062C5.25 1.83203 5.08594 1.96875 4.92188 1.96875H2.625C2.13281 1.96875 1.75 2.37891 1.75 2.84375V8.09375C1.75 8.58594 2.13281 8.96875 2.625 8.96875H4.92188C5.08594 8.96875 5.25 9.13281 5.25 9.29688V10.3906Z" fill="url(#paint0_linear_0_21563)"/>
<defs>
<linearGradient id="paint0_linear_0_21563" x1="0" y1="-2.28125" x2="0" y2="13.7188" gradientUnits="userSpaceOnUse">
<stop stop-color="#FF8F8F"/>
<stop offset="1" stop-color="#FFC1C1"/>
</linearGradient>
</defs>
</svg>
