<svg width="18" height="14" viewBox="0 0 18 14" fill="none" xmlns="http://www.w3.org/2000/svg">
<path d="M16.6797 10.2266L17.3906 10.6367C17.4727 10.6641 17.5 10.7734 17.4727 10.8555C17.2812 11.457 16.9805 11.9766 16.5703 12.4414C16.5156 12.4961 16.4062 12.5234 16.3242 12.4688L15.6133 12.0586C15.3125 12.3047 14.9844 12.5234 14.6016 12.6328V13.4531C14.6016 13.5625 14.5469 13.6445 14.4648 13.6445C13.8633 13.7812 13.2617 13.7812 12.6328 13.6445C12.5508 13.6445 12.4961 13.5625 12.4961 13.4531V12.6328C12.1133 12.5234 11.7852 12.3047 11.4844 12.0586L10.7734 12.4688C10.6914 12.5234 10.582 12.4961 10.5273 12.4414C10.1172 11.9766 9.78906 11.457 9.625 10.8555C9.59766 10.7734 9.625 10.6641 9.70703 10.6367L10.418 10.2266C10.3359 9.84375 10.3359 9.43359 10.418 9.05078L9.70703 8.64062C9.625 8.61328 9.59766 8.50391 9.625 8.42188C9.78906 7.82031 10.1172 7.30078 10.5273 6.83594C10.582 6.78125 10.6914 6.75391 10.7734 6.80859L11.4844 7.21875C11.7852 6.97266 12.1133 6.75391 12.4961 6.64453V5.82422C12.4961 5.71484 12.5508 5.63281 12.6328 5.63281C13.2344 5.49609 13.8359 5.49609 14.4648 5.63281C14.5469 5.63281 14.6016 5.71484 14.6016 5.82422V6.64453C14.9844 6.75391 15.3125 6.97266 15.6133 7.21875L16.3242 6.80859C16.4062 6.75391 16.5156 6.78125 16.5703 6.83594C16.9805 7.30078 17.2812 7.82031 17.4727 8.42188C17.5 8.50391 17.4727 8.61328 17.3906 8.64062L16.6797 9.05078C16.7617 9.43359 16.7617 9.84375 16.6797 10.2266ZM13.5625 10.9648C14.2734 10.9648 14.875 10.3633 14.875 9.625C14.875 8.91406 14.2734 8.3125 13.5625 8.3125C12.8242 8.3125 12.2227 8.91406 12.2227 9.625C12.2227 10.3633 12.8242 10.9648 13.5625 10.9648ZM6.125 7C4.18359 7 2.625 5.44141 2.625 3.5C2.625 1.58594 4.18359 0 6.125 0C8.03906 0 9.625 1.58594 9.625 3.5C9.625 5.44141 8.03906 7 6.125 7ZM11.6211 13.207V13.4531C11.6211 13.5625 11.6484 13.6719 11.6758 13.7812C11.457 13.918 11.2109 14 10.9375 14H1.3125C0.574219 14 0 13.4258 0 12.6875V11.5664C0 9.54297 1.64062 7.875 3.66406 7.875H4.12891C4.73047 8.17578 5.41406 8.3125 6.125 8.3125C6.83594 8.3125 7.49219 8.17578 8.09375 7.875H8.55859C8.66797 7.875 8.77734 7.90234 8.88672 7.92969C8.85938 8.01172 8.80469 8.06641 8.77734 8.14844C8.64062 8.64062 8.83203 9.16016 9.26953 9.40625L9.48828 9.54297C9.48828 9.59766 9.48828 9.67969 9.48828 9.73438L9.26953 9.87109C8.83203 10.1172 8.64062 10.6367 8.77734 11.1289C8.99609 11.8125 9.37891 12.4961 9.89844 13.0156C10.0898 13.2344 10.3906 13.3711 10.6641 13.3711C10.8555 13.3711 11.0469 13.3164 11.2109 13.2344L11.4297 13.0977C11.4844 13.125 11.5391 13.1797 11.6211 13.207Z" fill="url(#paint0_linear_0_21575)"/>
<defs>
<linearGradient id="paint0_linear_0_21575" x1="0" y1="-0.75" x2="0" y2="15.25" gradientUnits="userSpaceOnUse">
<stop stop-color="#4E96FF"/>
<stop offset="1" stop-color="#80C9FC"/>
</linearGradient>
</defs>
</svg>
