<svg width="13" height="18" viewBox="0 0 13 18" fill="none" xmlns="http://www.w3.org/2000/svg">
<path d="M6.1875 12.375C4.28906 12.375 2.8125 10.8984 2.8125 9V3.375C2.8125 1.51172 4.28906 0 6.1875 0C8.05078 0 9.5625 1.51172 9.5625 3.375V9C9.5625 10.8984 8.05078 12.375 6.1875 12.375ZM11.8125 6.75C12.0938 6.75 12.375 7.03125 12.375 7.3125V9C12.375 12.1289 10.0195 14.7305 7.03125 15.1523V16.3125H9C9.28125 16.3125 9.5625 16.5938 9.5625 16.875V17.4375C9.5625 17.7539 9.28125 18 9 18H3.375C3.05859 18 2.8125 17.7539 2.8125 17.4375V16.875C2.8125 16.5938 3.05859 16.3125 3.375 16.3125H5.34375V15.1172C2.21484 14.6953 0 11.8828 0 8.75391V7.3125C0 7.03125 0.246094 6.75 0.5625 6.75H1.125C1.40625 6.75 1.6875 7.03125 1.6875 7.3125V8.82422C1.6875 11.1797 3.375 13.2539 5.73047 13.5C8.40234 13.7461 10.6875 11.6367 10.6875 9V7.3125C10.6875 7.03125 10.9336 6.75 11.25 6.75H11.8125Z" fill="#D9D9D9"/>
</svg>
