<svg width="14" height="18" viewBox="0 0 14 18" fill="none" xmlns="http://www.w3.org/2000/svg">
<path d="M13.5 4.28906V4.5H9V0H9.21094C9.42188 0 9.63281 0.105469 9.80859 0.28125L13.2188 3.69141C13.3945 3.86719 13.5 4.07812 13.5 4.28906ZM8.71875 5.625H13.5V17.1562C13.5 17.6484 13.1133 18 12.6562 18H0.84375C0.351562 18 0 17.6484 0 17.1562V0.84375C0 0.386719 0.351562 0 0.84375 0H7.875V4.78125C7.875 5.27344 8.22656 5.625 8.71875 5.625ZM3.9375 6.1875C3.02344 6.1875 2.25 6.96094 2.25 7.875C2.25 8.82422 3.02344 9.5625 3.9375 9.5625C4.88672 9.5625 5.625 8.82422 5.625 7.875C5.625 6.96094 4.88672 6.1875 3.9375 6.1875ZM11.25 14.625V10.6875L9.87891 9.31641C9.70312 9.14062 9.42188 9.14062 9.28125 9.31641L5.625 12.9375L4.25391 11.5664C4.07812 11.3906 3.83203 11.3906 3.65625 11.5312L2.28516 12.9375L2.25 14.625H11.25Z" fill="#D9D9D9"/>
</svg>
