<svg width="18" height="18" viewBox="0 0 18 18" fill="none" xmlns="http://www.w3.org/2000/svg">
<path fill-rule="evenodd" clip-rule="evenodd" d="M9.11729 0.916971L11.4967 5.6309L16.0762 6.08459C16.2988 6.10309 16.4903 6.2494 16.5667 6.45931C16.6431 6.66923 16.5904 6.90441 16.4317 7.06165L12.6629 10.7971L14.0602 15.873C14.1186 16.0929 14.0426 16.3266 13.866 16.4701C13.6893 16.6136 13.445 16.6401 13.2417 16.5379L8.59889 14.2389L3.96247 16.535C3.75918 16.6372 3.51484 16.6107 3.33823 16.4673C3.16162 16.3238 3.08559 16.0901 3.14398 15.8701L4.54131 10.7943L0.769596 7.05881C0.610934 6.90156 0.558236 6.66638 0.634625 6.45647C0.711014 6.24655 0.902533 6.10024 1.12515 6.08175L5.70468 5.62806L8.08049 0.916971C8.18012 0.722401 8.3803 0.599998 8.59889 0.599998C8.81748 0.599998 9.01767 0.722401 9.11729 0.916971Z" stroke="#B3B3B3" stroke-width="1.2" stroke-linecap="round" stroke-linejoin="round"/>
</svg>
